<?xml version="1.0" encoding="UTF-8" standalone="no"?>
<!-- Created with Inkscape (http://www.inkscape.org/) -->

<svg
   xmlns:dc="http://purl.org/dc/elements/1.1/"
   xmlns:cc="http://creativecommons.org/ns#"
   xmlns:rdf="http://www.w3.org/1999/02/22-rdf-syntax-ns#"
   xmlns:svg="http://www.w3.org/2000/svg"
   xmlns="http://www.w3.org/2000/svg"
   xmlns:sodipodi="http://sodipodi.sourceforge.net/DTD/sodipodi-0.dtd"
   xmlns:inkscape="http://www.inkscape.org/namespaces/inkscape"
   width="180.17987mm"
   height="98.857811mm"
   viewBox="0 0 180.17987 98.85781"
   version="1.1"
   id="svg8"
   inkscape:version="0.92.4 (5da689c313, 2019-01-14)"
   sodipodi:docname="3. Logo nu (N sur T).svg"
   inkscape:export-filename="C:\Users\Antoine\Desktop\Gammes différentielles\Logo\Note.png"
   inkscape:export-xdpi="3256.4099"
   inkscape:export-ydpi="3256.4099">
  <defs
     id="defs2" />
  <sodipodi:namedview
     id="base"
     pagecolor="#ffffff"
     bordercolor="#666666"
     borderopacity="1.0"
     inkscape:pageopacity="0"
     inkscape:pageshadow="2"
     inkscape:zoom="1.1276415"
     inkscape:cx="184.86282"
     inkscape:cy="186.81791"
     inkscape:document-units="mm"
     inkscape:current-layer="layer1"
     showgrid="false"
     inkscape:snap-global="false"
     inkscape:window-width="1600"
     inkscape:window-height="876"
     inkscape:window-x="-4"
     inkscape:window-y="-4"
     inkscape:window-maximized="1"
     inkscape:snap-bbox="false"
     inkscape:bbox-paths="false"
     inkscape:bbox-nodes="false"
     inkscape:snap-bbox-edge-midpoints="false"
     inkscape:snap-bbox-midpoints="true"
     inkscape:object-paths="false"
     inkscape:snap-intersection-paths="true"
     inkscape:snap-smooth-nodes="false"
     inkscape:snap-others="true"
     inkscape:snap-nodes="true"
     inkscape:snap-object-midpoints="false"
     inkscape:snap-center="true"
     inkscape:snap-midpoints="false"
     inkscape:object-nodes="false" />
  <metadata
     id="metadata5">
    <rdf:RDF>
      <cc:Work
         rdf:about="">
        <dc:format>image/svg+xml</dc:format>
        <dc:type
           rdf:resource="http://purl.org/dc/dcmitype/StillImage" />
        <dc:title></dc:title>
      </cc:Work>
    </rdf:RDF>
  </metadata>
  <g
     inkscape:label="Layer 1"
     inkscape:groupmode="layer"
     id="layer1"
     transform="translate(-1.869686,12.903155)"
     style="display:inline">
    <path
       style="fill:none;stroke:#000000;stroke-width:0.88000005;stroke-linecap:butt;stroke-linejoin:miter;stroke-miterlimit:4;stroke-dasharray:none;stroke-opacity:1"
       d="M 4.369686,9.172972 H 179.54955"
       id="path888"
       inkscape:connector-curvature="0" />
    <path
       inkscape:connector-curvature="0"
       id="path890"
       d="M 4.369686,63.789508 H 179.54955"
       style="fill:none;stroke:#000000;stroke-width:0.88000005;stroke-linecap:butt;stroke-linejoin:miter;stroke-miterlimit:4;stroke-dasharray:none;stroke-opacity:1" />
    <path
       style="fill:none;stroke:#000000;stroke-width:2.11666656px;stroke-linecap:butt;stroke-linejoin:miter;stroke-opacity:1"
       d="M 5.428022,8.732972 V 64.229508"
       id="path892"
       inkscape:connector-curvature="0" />
    <path
       inkscape:connector-curvature="0"
       id="path894"
       d="M 178.86955,8.732972 V 64.229508"
       style="fill:none;stroke:#000000;stroke-width:1.36000001;stroke-linecap:butt;stroke-linejoin:miter;stroke-miterlimit:4;stroke-dasharray:none;stroke-opacity:1" />
    <path
       inkscape:connector-curvature="0"
       id="path907"
       d="M 109.29931,36.481244 H 54.682774"
       style="fill:none;stroke:#000000;stroke-width:0.40000001;stroke-linecap:butt;stroke-linejoin:miter;stroke-miterlimit:4;stroke-dasharray:none;stroke-opacity:1" />
    <path
       inkscape:connector-curvature="0"
       id="path909"
       d="M 4.369686,36.481244 H 179.54955"
       style="fill:none;stroke:#000000;stroke-width:0.88000005;stroke-linecap:butt;stroke-linejoin:miter;stroke-miterlimit:4;stroke-dasharray:none;stroke-opacity:1" />
    <path
       inkscape:connector-curvature="0"
       id="path917"
       d="M 4.369686,22.827108 H 179.54955"
       style="fill:none;stroke:#000000;stroke-width:0.88000005;stroke-linecap:butt;stroke-linejoin:miter;stroke-miterlimit:4;stroke-dasharray:none;stroke-opacity:1" />
    <path
       style="fill:none;stroke:#000000;stroke-width:0.88000005;stroke-linecap:butt;stroke-linejoin:miter;stroke-miterlimit:4;stroke-dasharray:none;stroke-opacity:1"
       d="M 4.369686,50.13538 H 179.54955"
       id="path921"
       inkscape:connector-curvature="0" />
    <path
       inkscape:connector-curvature="0"
       id="path844"
       style="font-variant:normal;font-weight:normal;font-size:6.99969387px;font-family:'Opus Std';-inkscape-font-specification:OpusStd;writing-mode:lr-tb;fill:#00000a;fill-opacity:1;fill-rule:nonzero;stroke:none;stroke-width:0.43748081"
       d="m 147.29569,50.372516 c 5.25518,0 11.73488,-4.680256 11.73488,-9.469352 0,-2.884344 -2.398,-4.734672 -5.81643,-4.734672 -5.15314,0 -11.63284,4.571408 -11.63284,9.469352 0,2.993184 2.50004,4.734672 5.71439,4.734672 z" />
    <path
       sodipodi:nodetypes="cc"
       d="M 158.43068,41.140028 V -7.76626"
       style="fill:none;stroke:#000000;stroke-width:1.31244266;stroke-linecap:butt;stroke-linejoin:bevel;stroke-miterlimit:10;stroke-dasharray:none;stroke-opacity:1"
       id="path846"
       inkscape:connector-curvature="0" />
    <path
       sodipodi:nodetypes="ccccsssccccc"
       inkscape:connector-curvature="0"
       id="path848"
       style="font-variant:normal;font-weight:normal;font-size:6.99969387px;font-family:'Opus Std';-inkscape-font-specification:OpusStd;writing-mode:lr-tb;fill:#00000a;fill-opacity:1;fill-rule:nonzero;stroke:none;stroke-width:0.43748081"
       d="m 158.53349,5.680876 c 2.55106,0 3.51735,0.82296 4.99696,1.965808 4.13272,3.102032 6.12567,7.533048 6.12567,10.551144 -0.0488,5.1724 -0.65232,6.770232 -1.78575,9.741464 0,0.27216 0.15304,0.43536 0.40816,0.43536 0.51024,0 3.11229,-3.809512 3.11229,-10.775472 V 17.3271 c 0,-2.340128 -0.61224,-4.571408 -1.83677,-6.63944 -0.3572,-0.65312 -1.9388,-2.884328 -4.74497,-6.639416 -2.19391,-2.993192 -4.08171,-6.693864 -5.61235,-10.99316 -0.0512,-0.16328 -0.20408,-0.82136 -0.66328,-0.82136 z" />
    <path
       d="m 79.31027,64.026652 c 5.255184,0 11.734888,-4.680248 11.734888,-9.469352 0,-2.884344 -2.398,-4.734672 -5.816432,-4.734672 -5.153144,0 -11.63284,4.571408 -11.63284,9.469352 0,2.993184 2.50004,4.734672 5.714384,4.734672 z"
       style="font-variant:normal;font-weight:normal;font-size:6.99969387px;font-family:'Opus Std';-inkscape-font-specification:OpusStd;writing-mode:lr-tb;fill:#00000a;fill-opacity:1;fill-rule:nonzero;stroke:none;stroke-width:0.43748081"
       id="path1085"
       inkscape:connector-curvature="0" />
    <path
       inkscape:connector-curvature="0"
       id="path1087"
       style="fill:none;stroke:#000000;stroke-width:1.31244266;stroke-linecap:butt;stroke-linejoin:bevel;stroke-miterlimit:10;stroke-dasharray:none;stroke-opacity:1"
       d="M 90.445262,54.794164 V 5.887876"
       sodipodi:nodetypes="cc" />
    <path
       d="m 90.54807,19.335012 c 2.551064,0 3.517352,0.82296 4.996968,1.965808 4.13272,3.102032 6.125662,7.533048 6.125662,10.551144 -0.0488,5.1724 -0.65232,6.770232 -1.78575,9.741464 0,0.27216 0.15304,0.43544 0.40816,0.43544 0.51024,0 3.1123,-3.809512 3.1123,-10.775472 v -0.27208 c 0,-2.340128 -0.61224,-4.571408 -1.83677,-6.63944 -0.3572,-0.65312 -1.938802,-2.884328 -4.744978,-6.639416 C 94.62975,14.709268 92.741958,11.008596 91.211318,6.7093 91.160118,6.54602 91.007238,5.88794 90.548038,5.88794 Z"
       style="font-variant:normal;font-weight:normal;font-size:6.99969387px;font-family:'Opus Std';-inkscape-font-specification:OpusStd;writing-mode:lr-tb;fill:#00000a;fill-opacity:1;fill-rule:nonzero;stroke:none;stroke-width:0.43748081"
       id="path1089"
       inkscape:connector-curvature="0"
       sodipodi:nodetypes="ccccsssccccc" />
    <path
       d="m 113.30298,57.199588 c 5.25519,0 11.73489,-4.680256 11.73489,-9.469352 0,-2.884352 -2.398,-4.734672 -5.81643,-4.734672 -5.15315,0 -11.63284,4.571408 -11.63284,9.469352 0,2.993184 2.50004,4.734672 5.71438,4.734672 z"
       style="font-variant:normal;font-weight:normal;font-size:6.99969387px;font-family:'Opus Std';-inkscape-font-specification:OpusStd;writing-mode:lr-tb;fill:#00000a;fill-opacity:1;fill-rule:nonzero;stroke:none;stroke-width:0.43748081"
       id="path1093"
       inkscape:connector-curvature="0" />
    <path
       inkscape:connector-curvature="0"
       id="path1095"
       style="fill:none;stroke:#000000;stroke-width:1.31244266;stroke-linecap:butt;stroke-linejoin:bevel;stroke-miterlimit:10;stroke-dasharray:none;stroke-opacity:1"
       d="M 124.43797,47.967092 V -0.939196"
       sodipodi:nodetypes="cc" />
    <path
       d="m 124.54078,12.50794 c 2.55107,0 3.51735,0.82296 4.99697,1.965816 4.13272,3.102032 6.12566,7.53304 6.12566,10.551136 -0.0488,5.172408 -0.65232,6.770232 -1.78575,9.741472 0,0.27208 0.15304,0.43544 0.40816,0.43544 0.51024,0 3.1123,-3.809512 3.1123,-10.775472 v -0.27216 c 0,-2.34012 -0.61224,-4.5714 -1.83677,-6.639432 -0.3572,-0.65312 -1.9388,-2.884336 -4.74498,-6.639424 -2.19391,-2.993184 -4.0817,-6.693856 -5.61234,-10.993152 -0.0512,-0.16328 -0.20408,-0.821368 -0.66328,-0.821368 z"
       style="font-variant:normal;font-weight:normal;font-size:6.99969387px;font-family:'Opus Std';-inkscape-font-specification:OpusStd;writing-mode:lr-tb;fill:#00000a;fill-opacity:1;fill-rule:nonzero;stroke:none;stroke-width:0.43748081"
       id="path1097"
       inkscape:connector-curvature="0"
       sodipodi:nodetypes="ccccsssccccc" />
    <path
       style="display:inline;fill:#000000;fill-opacity:1;stroke:none;stroke-width:0.23999999;stroke-linecap:butt;stroke-linejoin:miter;stroke-miterlimit:4;stroke-dasharray:none;stroke-opacity:1"
       d="M 7.542454,3.181644 V 1.324676 H 59.53759 l 1.317856,17.371648 H 59.058374 C 58.539574,15.086692 58.818454,5.577732 47.317542,5.577732 H 22.218502 L 43.184286,32.713444 19.283294,61.1071 h 28.154048 c 10.237304,0 12.937696,-4.909888 14.855752,-11.441328 h 1.856968 L 61.15495,70.511748 H 7.722166 v -1.61736 L 34.378654,37.38582 Z"
       id="path968"
       inkscape:connector-curvature="0"
       sodipodi:nodetypes="cccccscccsccccccc" />
    <path
       id="path1035"
       style="display:inline;fill:#000000;fill-opacity:1;fill-rule:evenodd;stroke:none;stroke-width:0.024;stroke-linecap:butt;stroke-linejoin:miter;stroke-miterlimit:4;stroke-dasharray:none;stroke-opacity:1"
       d="m 32.59691,-2.65882 c -1.3874,0 -2.396088,-1.587408 -2.396088,-3.15984 0,-2.470968 1.596576,-3.181384 2.728712,-3.181384 1.178912,0 1.721104,0.73624 2.803656,2.611256 -0.628,1.826064 -1.34948,3.729968 -3.13628,3.729968 z m 7.876792,0.31448 c 1.707208,0 2.980136,-1.527504 2.980136,-3.50428 0,-2.171448 -1.482904,-3.713936 -2.905264,-3.713936 -1.53576,0 -2.649632,1.52468 -3.411312,4.367296 1.070392,2.3946 2.348872,2.85092 3.33644,2.85092 z m -0.4504,-8.058816 c -1.64604,0 -3.021744,0.55584 -3.952216,2.993096 -0.830264,-1.605752 -1.524992,-2.468064 -3.175,-2.468064 -1.720616,0 -3.38584,1.498872 -3.38584,4.059696 0,1.931848 1.228608,3.985288 3.774448,3.985288 1.834704,0 2.669816,-0.95316 3.447848,-2.678904 1.071568,1.974648 1.900856,2.931088 3.741376,2.931088 2.321208,0 3.712432,-2.246432 3.712432,-4.52272 0,-2.00672 -1.34764,-4.29948 -4.163048,-4.29948 z"
       inkscape:connector-curvature="0" />
    <path
       id="path1048"
       style="display:inline;fill:#000000;fill-opacity:1;fill-rule:evenodd;stroke:none;stroke-width:0.024;stroke-linecap:butt;stroke-linejoin:miter;stroke-miterlimit:4;stroke-dasharray:none;stroke-opacity:1"
       d="m 41.368406,78.754324 c 0,3.008544 -2.427264,4.700328 -4.357576,4.700328 -1.713704,0 -4.228,-1.560536 -4.228,-4.751328 0,-2.976328 2.284816,-4.735208 4.237032,-4.735208 1.802056,0 4.348544,1.444456 4.348544,4.786208 z m -1.531408,-0.0057 c 0,3.018528 -1.326528,4.074336 -2.815496,4.074336 -1.48896,0 -2.77488,-1.258848 -2.77488,-4.142016 0,-2.720736 1.312992,-4.075352 2.727504,-4.081104 1.644624,-0.0068 2.862872,1.25208 2.862872,4.148784 z"
       inkscape:connector-curvature="0"
       sodipodi:nodetypes="ssssssssss" />
  </g>
</svg>
